<svg width="70" height="70" viewBox="0 0 70 70" fill="none" xmlns="http://www.w3.org/2000/svg">
<rect width="70" height="70" rx="10" fill="#4C4C4C"/>
<path d="M52.4171 43.9172C52.0093 43.4828 50.5695 42.1984 47.9226 40.4992C45.2562 38.7851 43.2898 37.7164 42.7257 37.4672C42.676 37.4451 42.6212 37.437 42.5673 37.4438C42.5133 37.4505 42.4622 37.4718 42.4195 37.5055C41.5109 38.214 39.9812 39.5156 39.8992 39.5859C39.3695 40.0398 39.3695 40.0398 38.9359 39.8984C38.1734 39.6484 35.8046 38.3906 33.7406 36.3219C31.6765 34.2531 30.3538 31.8258 30.1038 31.064C29.9609 30.6297 29.9609 30.6297 30.4163 30.1C30.4867 30.018 31.789 28.4883 32.4976 27.5805C32.5312 27.5377 32.5525 27.4866 32.5593 27.4326C32.566 27.3787 32.5579 27.3239 32.5359 27.2742C32.2867 26.7094 31.2179 24.7437 29.5038 22.0773C27.8023 19.4312 26.5195 17.9914 26.0851 17.5836C26.0452 17.546 25.996 17.5198 25.9425 17.5078C25.889 17.4959 25.8333 17.4986 25.7812 17.5156C24.2628 18.0374 22.7978 18.7032 21.4062 19.5039C20.0628 20.2848 18.7909 21.1829 17.6054 22.1875C17.564 22.2227 17.533 22.2684 17.5157 22.3199C17.4983 22.3714 17.4953 22.4266 17.507 22.4797C17.6703 23.2406 18.4507 26.4172 20.8726 30.8172C23.3437 35.3078 25.0562 37.6086 28.6851 41.225C32.314 44.8414 34.6874 46.657 39.1828 49.1281C43.5828 51.55 46.7609 52.3312 47.5203 52.493C47.5734 52.5045 47.6287 52.5014 47.6803 52.4841C47.7319 52.4668 47.7778 52.4358 47.8132 52.3945C48.8177 51.2091 49.7154 49.9372 50.496 48.5937C51.2966 47.202 51.9624 45.737 52.4843 44.2187C52.501 44.167 52.5036 44.1118 52.4918 44.0588C52.48 44.0058 52.4542 43.9569 52.4171 43.9172Z" fill="white"/>
</svg>
