<svg width="75" height="70" viewBox="0 0 75 70" fill="none" xmlns="http://www.w3.org/2000/svg">
<rect width="74.0164" height="70" rx="10" fill="#8A8A8A"/>
<g clip-path="url(#clip0_1375_603)">
<path d="M20 50H55V55H15V15H20V50ZM26.25 47.5C25.7431 47.501 25.2413 47.3993 24.7748 47.2009C24.3084 47.0025 23.887 46.7116 23.5361 46.3458C23.1852 45.9799 22.9122 45.5468 22.7334 45.0725C22.5547 44.5981 22.4739 44.0925 22.4961 43.5861C22.5183 43.0797 22.6428 42.583 22.8623 42.1261C23.0818 41.6692 23.3917 41.2616 23.7732 40.9278C24.1547 40.594 24.5998 40.341 25.0818 40.1841C25.5638 40.0273 26.0726 39.9697 26.5775 40.015L30.6075 33.2975C30.239 32.7316 30.0302 32.0767 30.003 31.4019C29.9759 30.7272 30.1315 30.0576 30.4533 29.4639C30.7752 28.8702 31.2514 28.3745 31.8317 28.0291C32.4119 27.6836 33.0747 27.5012 33.75 27.5012C34.4253 27.5012 35.0881 27.6836 35.6683 28.0291C36.2486 28.3745 36.7248 28.8702 37.0467 29.4639C37.3685 30.0576 37.5241 30.7272 37.497 31.4019C37.4698 32.0767 37.261 32.7316 36.8925 33.2975L40.9225 40.015C41.1137 39.9978 41.306 39.9961 41.4975 40.01L48.1525 28.365C47.6743 27.6645 47.4476 26.8225 47.5096 25.9766C47.5716 25.1306 47.9186 24.3307 48.4938 23.7074C49.0691 23.084 49.8387 22.6742 50.677 22.5446C51.5152 22.4151 52.3726 22.5736 53.1092 22.9942C53.8458 23.4148 54.418 24.0727 54.7324 24.8605C55.0469 25.6483 55.0849 26.5194 54.8404 27.3316C54.5959 28.1438 54.0833 28.8491 53.3862 29.3324C52.6892 29.8157 51.8489 30.0484 51.0025 29.9925L44.3475 41.6375C44.7299 42.1983 44.9529 42.8524 44.9927 43.5299C45.0325 44.2075 44.8877 44.8832 44.5737 45.485C44.2597 46.0867 43.7882 46.5919 43.2096 46.9468C42.631 47.3016 41.9669 47.4928 41.2882 47.4998C40.6095 47.5069 39.9416 47.3296 39.3557 46.9869C38.7699 46.6442 38.288 46.1489 37.9615 45.5538C37.635 44.9588 37.4761 44.2862 37.5019 43.608C37.5276 42.9297 37.7369 42.2711 38.1075 41.7025L34.0775 34.985C33.8596 35.0052 33.6404 35.0052 33.4225 34.985L29.3925 41.7025C29.7613 42.2684 29.9704 42.9235 29.9977 43.5984C30.025 44.2734 29.8695 44.9432 29.5476 45.537C29.2257 46.1309 28.7494 46.6268 28.1689 46.9723C27.5885 47.3178 26.9255 47.5001 26.25 47.5Z" fill="white"/>
</g>
<defs>
<clipPath id="clip0_1375_603">
<rect width="40" height="40" fill="white" transform="translate(15 15)"/>
</clipPath>
</defs>
</svg>
