<svg width="70" height="70" viewBox="0 0 70 70" fill="none" xmlns="http://www.w3.org/2000/svg">
<rect width="70" height="70" rx="10" fill="#4C4C4C"/>
<path d="M28 18.3333H42C47.3334 18.3333 51.6667 22.6667 51.6667 28V42C51.6667 44.5638 50.6483 47.0225 48.8354 48.8354C47.0226 50.6482 44.5638 51.6667 42 51.6667H28C22.6667 51.6667 18.3334 47.3333 18.3334 42V28C18.3334 25.4363 19.3518 22.9775 21.1647 21.1646C22.9775 19.3518 25.4363 18.3333 28 18.3333ZM27.6667 21.6667C26.0754 21.6667 24.5493 22.2988 23.4241 23.424C22.2988 24.5493 21.6667 26.0754 21.6667 27.6667V42.3333C21.6667 45.65 24.35 48.3333 27.6667 48.3333H42.3334C43.9247 48.3333 45.4508 47.7012 46.576 46.576C47.7012 45.4508 48.3334 43.9246 48.3334 42.3333V27.6667C48.3334 24.35 45.65 21.6667 42.3334 21.6667H27.6667ZM43.75 24.1667C44.3026 24.1667 44.8325 24.3862 45.2232 24.7769C45.6139 25.1676 45.8334 25.6975 45.8334 26.25C45.8334 26.8025 45.6139 27.3324 45.2232 27.7231C44.8325 28.1138 44.3026 28.3333 43.75 28.3333C43.1975 28.3333 42.6676 28.1138 42.2769 27.7231C41.8862 27.3324 41.6667 26.8025 41.6667 26.25C41.6667 25.6975 41.8862 25.1676 42.2769 24.7769C42.6676 24.3862 43.1975 24.1667 43.75 24.1667ZM35 26.6667C37.2102 26.6667 39.3298 27.5447 40.8926 29.1075C42.4554 30.6703 43.3334 32.7899 43.3334 35C43.3334 37.2101 42.4554 39.3298 40.8926 40.8926C39.3298 42.4554 37.2102 43.3333 35 43.3333C32.7899 43.3333 30.6703 42.4554 29.1075 40.8926C27.5447 39.3298 26.6667 37.2101 26.6667 35C26.6667 32.7899 27.5447 30.6703 29.1075 29.1075C30.6703 27.5447 32.7899 26.6667 35 26.6667ZM35 30C33.674 30 32.4022 30.5268 31.4645 31.4645C30.5268 32.4022 30 33.6739 30 35C30 36.3261 30.5268 37.5979 31.4645 38.5355C32.4022 39.4732 33.674 40 35 40C36.3261 40 37.5979 39.4732 38.5356 38.5355C39.4733 37.5979 40 36.3261 40 35C40 33.6739 39.4733 32.4022 38.5356 31.4645C37.5979 30.5268 36.3261 30 35 30Z" fill="white"/>
</svg>
