<svg width="70" height="70" viewBox="0 0 70 70" fill="none" xmlns="http://www.w3.org/2000/svg">
<rect width="70" height="70" rx="10" fill="#4C4C4C"/>
<path fill-rule="evenodd" clip-rule="evenodd" d="M30.715 29.9483H36.905V33.0317C37.7967 31.2583 40.0834 29.665 43.5184 29.665C50.1034 29.665 51.6667 33.195 51.6667 39.6717V51.6667H45V41.1467C45 37.4583 44.1084 35.3783 41.8384 35.3783C38.69 35.3783 37.3817 37.62 37.3817 41.145V51.6667H30.715V29.9483ZM19.2834 51.3833H25.95V29.665H19.2834V51.3833ZM26.905 22.5833C26.9053 23.1421 26.7945 23.6954 26.579 24.211C26.3636 24.7266 26.0478 25.1942 25.65 25.5867C24.844 26.3877 23.7531 26.8361 22.6167 26.8333C21.4824 26.8326 20.3939 26.3853 19.5867 25.5883C19.1904 25.1945 18.8757 24.7264 18.6606 24.2107C18.4455 23.6951 18.3343 23.1421 18.3334 22.5833C18.3334 21.455 18.7834 20.375 19.5884 19.5783C20.3948 18.7803 21.4838 18.3328 22.6184 18.3333C23.755 18.3333 24.845 18.7817 25.65 19.5783C26.4534 20.375 26.905 21.455 26.905 22.5833Z" fill="white"/>
</svg>
