<svg width="70" height="70" viewBox="0 0 70 70" fill="none" xmlns="http://www.w3.org/2000/svg">
<rect width="70" height="70" rx="10" fill="#4C4C4C"/>
<path d="M48.3335 28.3334L35.0002 36.6667L21.6668 28.3334V25L35.0002 33.3334L48.3335 25M48.3335 21.6667H21.6668C19.8168 21.6667 18.3335 23.15 18.3335 25V45C18.3335 45.8841 18.6847 46.7319 19.3098 47.357C19.9349 47.9822 20.7828 48.3334 21.6668 48.3334H48.3335C49.2176 48.3334 50.0654 47.9822 50.6905 47.357C51.3156 46.7319 51.6668 45.8841 51.6668 45V25C51.6668 24.116 51.3156 23.2681 50.6905 22.643C50.0654 22.0179 49.2176 21.6667 48.3335 21.6667Z" fill="white"/>
</svg>
