<svg width="70" height="70" viewBox="0 0 70 70" fill="none" xmlns="http://www.w3.org/2000/svg">
<rect width="70" height="70" rx="10" fill="#4C4C4C"/>
<path d="M42.6667 24.7C41.5274 23.3994 40.8995 21.7291 40.9 20H35.75V40.6667C35.7103 41.785 35.2381 42.8444 34.433 43.6216C33.6278 44.3988 32.5524 44.8332 31.4333 44.8333C29.0667 44.8333 27.1 42.9 27.1 40.5C27.1 37.6333 29.8667 35.4833 32.7167 36.3667V31.1C26.9667 30.3333 21.9333 34.8 21.9333 40.5C21.9333 46.05 26.5334 50 31.4167 50C36.65 50 40.9 45.75 40.9 40.5V30.0167C42.9883 31.5164 45.4956 32.3211 48.0667 32.3167V27.1667C48.0667 27.1667 44.9333 27.3167 42.6667 24.7Z" fill="white"/>
</svg>
