<svg width="70" height="70" viewBox="0 0 70 70" fill="none" xmlns="http://www.w3.org/2000/svg">
<rect width="70" height="70" rx="10" fill="#4C4C4C"/>
<path d="M53.3333 31.1833C53.4158 28.7978 52.8941 26.43 51.8167 24.3C51.0857 23.426 50.0712 22.8362 48.95 22.6333C44.3125 22.2125 39.6559 22.0401 35 22.1167C30.3611 22.0366 25.7212 22.2035 21.1 22.6167C20.1864 22.7829 19.3409 23.2114 18.6667 23.85C17.1667 25.2333 17 27.6 16.8333 29.6C16.5915 33.1959 16.5915 36.8041 16.8333 40.4C16.8816 41.5257 17.0492 42.6431 17.3333 43.7333C17.5343 44.5751 17.9409 45.3539 18.5167 46C19.1955 46.6724 20.0606 47.1253 21 47.3C24.5932 47.7435 28.2137 47.9273 31.8333 47.85C37.6667 47.9333 42.7833 47.85 48.8333 47.3833C49.7958 47.2194 50.6853 46.7659 51.3833 46.0833C51.8499 45.6165 52.1985 45.0452 52.4 44.4167C52.9961 42.5877 53.2888 40.6735 53.2667 38.75C53.3333 37.8167 53.3333 32.1833 53.3333 31.1833ZM31.2333 39.75V29.4333L41.1 34.6167C38.3333 36.15 34.6833 37.8833 31.2333 39.75Z" fill="white"/>
</svg>
